<svg width="586" height="586" viewBox="0 0 586 586" fill="none" xmlns="http://www.w3.org/2000/svg">
<rect x="36" y="35" width="515" height="515" rx="76" fill="white"/>
<path d="M421 64C476.781 64 522 109.219 522 165V233C522 252.33 506.33 268 487 268H386.5C379.596 268 374 273.596 374 280.5C374 287.404 379.596 293 386.5 293H487C506.33 293 522 308.67 522 328V421C522 476.781 476.781 522 421 522H165C109.219 522 64 476.781 64 421V165C64 109.219 109.219 64 165 64H421Z" fill="#4F46E5"/>
<rect x="157" y="157" width="272" height="272" rx="44" fill="white"/>
<circle cx="213.006" cy="250.681" r="12.5028" fill="#4F46E5"/>
<path d="M212.311 184C217.402 184 222.127 185.565 226.032 188.24C225.632 188.194 225.226 188.167 224.813 188.167C219.059 188.167 214.395 192.833 214.395 198.587C214.395 204.341 219.06 209.006 224.813 209.006C230.109 209.006 234.478 205.054 235.142 199.939C236.099 202.549 236.622 205.369 236.622 208.311C236.622 221.737 225.737 232.622 212.311 232.622C198.884 232.622 188 221.737 188 208.311C188 194.884 198.884 184 212.311 184ZM202.587 214.562C199.902 214.562 197.725 216.739 197.725 219.425C197.725 222.11 199.902 224.287 202.587 224.287C205.272 224.287 207.449 222.11 207.449 219.425C207.449 216.74 205.272 214.563 202.587 214.562Z" fill="#4F46E5"/>
<rect x="311" y="292" width="211" height="63" rx="16" fill="#4F46E5"/>
<circle cx="344" cy="324" r="18" fill="white"/>
</svg>
